<svg width="50" height="49" viewBox="0 0 50 49" fill="none" xmlns="http://www.w3.org/2000/svg">
<path opacity="0.4" d="M45.0833 15.8339V28.2139H36.7533C35.3854 28.2139 33.7725 27.2539 33.1396 26.0739L31.0163 22.1339C30.4446 21.0739 29.6279 21.1339 29.1788 22.2339L24.4829 33.8539C23.9725 35.1539 23.115 35.1539 22.5842 33.8539L20.2567 28.0939C19.7054 26.6939 17.9904 25.5539 16.4592 25.5539L4.25 25.6139V15.8339C4.25 8.55387 8.68042 4.21387 16.1121 4.21387H33.2213C40.6529 4.21387 45.0833 8.55387 45.0833 15.8339Z" fill="#F5F7FA" data-index="0"></path>
<path d="M45.0833 32.5942V28.2142H36.7533C35.3854 28.2142 33.7725 27.2542 33.1396 26.0742L31.0163 22.1342C30.4446 21.0742 29.6279 21.1342 29.1788 22.2342L24.4829 33.8542C23.9725 35.1542 23.115 35.1542 22.5842 33.8542L20.2567 28.0942C19.7054 26.6942 17.9904 25.5542 16.4592 25.5542L4.25 25.6142V32.5942C4.25 39.7542 8.5375 44.0742 15.7446 44.1942C15.9692 44.2142 16.2142 44.2142 16.4388 44.2142H32.7721C33.0783 44.2142 33.3846 44.2142 33.6704 44.1942C40.8367 44.0342 45.0833 39.7342 45.0833 32.5942Z" fill="#F5F7FA" data-index="1"></path>
<path d="M4.24997 25.6143V32.2343C4.20914 31.5943 4.18872 30.9143 4.18872 30.2143V25.6143H4.24997Z" fill="#F5F7FA" data-index="2"></path>
</svg>