<svg width="24" height="25" viewBox="0 0 24 25" fill="none" xmlns="http://www.w3.org/2000/svg">
<g clip-path="url(#clip0_76_1118)">
<mask id="mask0_76_1118" style="mask-type:luminance" maskUnits="userSpaceOnUse" x="0" y="0" width="24" height="25">
<path d="M0 0.428711H24V24.4287H0V0.428711Z" fill="white" data-index="0"></path>
</mask>
<g mask="url(#mask0_76_1118)">
<mask id="mask1_76_1118" style="mask-type:luminance" maskUnits="userSpaceOnUse" x="0" y="0" width="24" height="25">
<path d="M0 0.428711H24V24.4287H0V0.428711Z" fill="white" data-index="1"></path>
</mask>
<g mask="url(#mask1_76_1118)">
<path d="M17.939 13.024C17.9297 11.3037 18.7078 10.0053 20.2828 9.04903C19.4015 7.78808 18.0703 7.09433 16.3125 6.9584C14.6485 6.82715 12.8297 7.92871 12.164 7.92871C11.461 7.92871 9.84846 7.00528 8.58281 7.00528C5.96719 7.04746 3.1875 9.09121 3.1875 13.249C3.1875 14.4772 3.4125 15.7459 3.8625 17.0553C4.4625 18.7756 6.62813 22.9944 8.8875 22.924C10.0688 22.8959 10.9031 22.0849 12.4406 22.0849C13.9312 22.0849 14.7047 22.924 16.0219 22.924C18.3 22.8912 20.2594 19.0569 20.8312 17.3319C17.775 15.8928 17.939 13.1131 17.939 13.024ZM15.286 5.32715C16.5656 3.8084 16.4485 2.42559 16.411 1.92871C15.2812 1.99434 13.9735 2.69746 13.2281 3.56465C12.4078 4.49278 11.925 5.64121 12.0281 6.93496C13.2515 7.02871 14.3672 6.40058 15.286 5.32715Z" fill="black" data-index="2"></path>
</g>
</g>
</g>
<defs>
<clipPath id="clip0_76_1118">
<rect width="24" height="24" fill="white" transform="translate(0 0.428711)"></rect>
</clipPath>
</defs>
</svg>