<svg width="24" height="25" viewBox="0 0 24 25" fill="none" xmlns="http://www.w3.org/2000/svg">
<g clip-path="url(#clip0_76_1090)">
<mask id="mask0_76_1090" style="mask-type:luminance" maskUnits="userSpaceOnUse" x="0" y="0" width="24" height="25">
<path d="M0 0.428711H24V24.4287H0V0.428711Z" fill="white" data-index="0" style="visibility: visible;"></path>
</mask>
<g mask="url(#mask0_76_1090)">
<mask id="mask1_76_1090" style="mask-type:luminance" maskUnits="userSpaceOnUse" x="0" y="0" width="24" height="25">
<path d="M0 0.428711H24V24.4287H0V0.428711Z" fill="white" data-index="1" style="visibility: visible;"></path>
</mask>
<g mask="url(#mask1_76_1090)">
<path d="M23.218 5.29675C21.983 3.10275 19.291 1.94075 16.84 2.45375C15.73 2.69675 14.6669 3.22775 13.861 4.03675C13.2389 4.64975 12.619 5.26575 11.9969 5.87775C11.0819 4.96775 10.2089 3.94075 9.11496 3.22975C8.53194 2.86935 7.90548 2.61665 7.23558 2.47165C6.56568 2.32665 5.89082 2.29769 5.21096 2.38475C0.45396 2.96275 -1.72504 8.73076 1.59596 12.2348C5.07696 15.6528 8.53296 19.0977 12.0089 22.5228C15.2999 19.2717 18.5819 16.0128 21.88 12.7707C24.0119 10.9398 24.68 7.74475 23.218 5.29675ZM6.16194 11.6517C5.46996 10.8968 4.65096 10.2477 4.02096 9.44374C3.19996 8.22575 3.86296 6.43175 5.28096 6.04675C6.06198 5.79075 6.96396 6.01575 7.55994 6.57375C8.18694 7.18275 8.79594 7.81075 9.42594 8.41678C8.87814 8.95192 8.33682 9.49456 7.79196 10.0328C7.24716 10.5709 6.7038 11.1106 6.16194 11.6517ZM12.008 17.4098C11.465 16.8734 10.9223 16.3369 10.3798 15.8003C9.83736 15.2636 9.29508 14.7267 8.75298 14.1897C11.308 11.6738 13.856 9.14776 16.403 6.62375C16.796 6.22975 17.333 5.97775 17.89 5.95075C19.976 5.79675 21.175 8.32275 19.691 9.81676C17.1419 12.3588 14.57 14.8788 12.008 17.4098Z" fill="#4285F4" data-index="2" style="visibility: visible;"></path>
</g>
</g>
</g>
<defs>
<clipPath id="clip0_76_1090">
<rect width="24" height="24" fill="white" transform="translate(0 0.428711)"></rect>
</clipPath>
</defs>
</svg>