<svg width="50" height="49" viewBox="0 0 50 49" fill="none" xmlns="http://www.w3.org/2000/svg">
<path opacity="0.4" d="M33.888 4.21387H16.7788C9.34716 4.21387 4.91675 8.55387 4.91675 15.8339V32.5739C4.91675 39.8739 9.34716 44.2139 16.7788 44.2139H33.8676C41.2993 44.2139 45.7297 39.8739 45.7297 32.5939V15.8339C45.7501 8.55387 41.3197 4.21387 33.888 4.21387Z" fill="#F5F7FA" data-index="0"></path>
<path d="M18.8411 19.7138C17.1057 19.7138 15.3703 19.0738 14.0432 17.7738C13.4511 17.1938 13.4511 16.2338 14.0432 15.6538C14.6353 15.0738 15.6153 15.0738 16.2074 15.6538C17.6569 17.0738 20.0253 17.0738 21.4749 15.6538C22.0669 15.0738 23.0469 15.0738 23.639 15.6538C24.2311 16.2338 24.2311 17.1938 23.639 17.7738C22.3119 19.0538 20.5765 19.7138 18.8411 19.7138Z" fill="#F5F7FA" data-index="1"></path>
<path d="M31.826 19.7138C30.0905 19.7138 28.3551 19.0738 27.028 17.7738C26.436 17.1938 26.436 16.2338 27.028 15.6538C27.6201 15.0738 28.6001 15.0738 29.1922 15.6538C30.6418 17.0738 33.0101 17.0738 34.4597 15.6538C35.0518 15.0738 36.0318 15.0738 36.6239 15.6538C37.216 16.2338 37.216 17.1938 36.6239 17.7738C35.2968 19.0538 33.5614 19.7138 31.826 19.7138Z" fill="#F5F7FA" data-index="2"></path>
<path d="M32.6835 25.4541H17.9835C16.5544 25.4541 15.3906 26.5941 15.3906 28.0141C15.3906 33.3941 19.8619 37.7741 25.354 37.7741C30.846 37.7741 35.3173 33.3941 35.3173 28.0141C35.2969 26.6141 34.1127 25.4541 32.6835 25.4541Z" fill="#F5F7FA" data-index="3"></path>
</svg>