<svg width="25" height="24" viewBox="0 0 25 24" fill="none" xmlns="http://www.w3.org/2000/svg">
<path opacity="0.4" d="M21.73 7.62047H16.19C15.81 7.62047 15.5 7.31047 15.5 6.92047C15.5 6.54047 15.81 6.23047 16.19 6.23047H21.73C22.11 6.23047 22.42 6.54047 22.42 6.92047C22.42 7.31047 22.11 7.62047 21.73 7.62047Z" fill="#76778C"/>
<path opacity="0.4" d="M6.96008 7.62023H3.27008C2.89008 7.62023 2.58008 7.31023 2.58008 6.93023C2.58008 6.55023 2.89008 6.24023 3.27008 6.24023H6.96008C7.34008 6.24023 7.65008 6.55023 7.65008 6.93023C7.65008 7.31023 7.34008 7.62023 6.96008 7.62023Z" fill="#76778C"/>
<path d="M10.6505 10.84C12.8154 10.84 14.5705 9.08496 14.5705 6.92C14.5705 4.75504 12.8154 3 10.6505 3C8.48551 3 6.73047 4.75504 6.73047 6.92C6.73047 9.08496 8.48551 10.84 10.6505 10.84Z" fill="#76778C"/>
<path opacity="0.4" d="M21.7296 17.7696H18.0396C17.6596 17.7696 17.3496 17.4596 17.3496 17.0796C17.3496 16.6996 17.6596 16.3896 18.0396 16.3896H21.7296C22.1096 16.3896 22.4196 16.6996 22.4196 17.0796C22.4196 17.4596 22.1096 17.7696 21.7296 17.7696Z" fill="#76778C"/>
<path opacity="0.4" d="M8.81008 17.7696H3.27008C2.89008 17.7696 2.58008 17.4596 2.58008 17.0796C2.58008 16.6996 2.89008 16.3896 3.27008 16.3896H8.81008C9.19008 16.3896 9.50008 16.6996 9.50008 17.0796C9.50008 17.4596 9.19008 17.7696 8.81008 17.7696Z" fill="#76778C"/>
<path d="M14.3497 21.0002C16.5146 21.0002 18.2697 19.2451 18.2697 17.0802C18.2697 14.9152 16.5146 13.1602 14.3497 13.1602C12.1847 13.1602 10.4297 14.9152 10.4297 17.0802C10.4297 19.2451 12.1847 21.0002 14.3497 21.0002Z" fill="#76778C"/>
</svg>
