<svg width="50" height="49" viewBox="0 0 50 49" fill="none" xmlns="http://www.w3.org/2000/svg">
<path d="M19.5284 26.7738H25.8371V41.1738C25.8371 43.2938 28.5321 44.2938 29.9613 42.6938L45.4167 25.4938C46.7642 23.9938 45.6821 21.6538 43.6405 21.6538H37.3317V7.25381C37.3317 5.13381 34.6367 4.13381 33.2075 5.73381L17.7521 22.9338C16.425 24.4338 17.5071 26.7738 19.5284 26.7738Z" fill="#F5F7FA" data-index="0" style="visibility: visible;"></path>
<path opacity="0.4" d="M17.8542 9.71387H3.5625C2.72542 9.71387 2.03125 9.03387 2.03125 8.21387C2.03125 7.39387 2.72542 6.71387 3.5625 6.71387H17.8542C18.6912 6.71387 19.3854 7.39387 19.3854 8.21387C19.3854 9.03387 18.6912 9.71387 17.8542 9.71387Z" fill="#F5F7FA" data-index="1" style="visibility: visible;"></path>
<path opacity="0.4" d="M15.8125 41.7139H3.5625C2.72542 41.7139 2.03125 41.0339 2.03125 40.2139C2.03125 39.3939 2.72542 38.7139 3.5625 38.7139H15.8125C16.6496 38.7139 17.3438 39.3939 17.3438 40.2139C17.3438 41.0339 16.6496 41.7139 15.8125 41.7139Z" fill="#F5F7FA" data-index="2" style="visibility: visible;"></path>
<path opacity="0.4" d="M9.6875 25.7139H3.5625C2.72542 25.7139 2.03125 25.0339 2.03125 24.2139C2.03125 23.3939 2.72542 22.7139 3.5625 22.7139H9.6875C10.5246 22.7139 11.2188 23.3939 11.2188 24.2139C11.2188 25.0339 10.5246 25.7139 9.6875 25.7139Z" fill="#F5F7FA" data-index="3" style="visibility: visible;"></path>
</svg>