<svg width="156" height="18" viewBox="0 0 156 18" fill="none" xmlns="http://www.w3.org/2000/svg">
<g style="mix-blend-mode:plus-lighter">
<path fill-rule="evenodd" clip-rule="evenodd" d="M18.7275 0.568117C18.8339 0.339469 19.1421 -0.0367995 20.0305 0.00290707C22.0982 0.104945 23.9833 0.985934 25.3628 2.38682C25.6495 2.9056 25.8815 3.46201 26.0502 4.04924C26.9243 7.14072 25.7557 10.4842 23.3249 12.4726C22.7428 12.95 22.0903 13.346 21.3763 13.6404C21.2631 13.6901 21.1496 13.7397 21.0337 13.7821C18.8173 14.5934 16.3796 14.3976 14.3393 13.2637C14.4406 13.0253 14.7149 12.7192 15.4236 12.5958C15.904 12.5117 16.376 12.3812 16.8266 12.1923C18.4962 11.5016 19.7484 10.1619 20.3804 8.56938C20.9417 7.16779 21.0221 5.57794 20.4879 4.08832C20.1852 3.25732 19.7329 2.51375 19.1292 1.87496C18.5408 1.25539 18.6257 0.78681 18.7275 0.568117Z" fill="url(#paint0_linear_165_2040)"/>
<path d="M14.2943 13.4117C14.2422 13.6537 14.268 14.1314 15.0025 14.6316C17.158 16.0676 19.8632 16.3868 22.3018 15.4987C22.4183 15.4563 22.5323 15.4067 22.6461 15.357C23.3634 15.0627 24.019 14.6669 24.6038 14.1898C27.046 12.2021 28.22 8.86007 27.3419 5.7699C26.965 4.46505 26.2743 3.31244 25.3628 2.38682C25.6495 2.9056 25.8815 3.46201 26.0502 4.04924C26.9243 7.14072 25.7557 10.4842 23.3249 12.4726C22.7428 12.95 22.0903 13.346 21.3763 13.6404C21.2631 13.6901 21.1496 13.7397 21.0337 13.7821C18.8173 14.5934 16.3796 14.3976 14.3393 13.2637C14.3165 13.3175 14.3025 13.3678 14.2943 13.4117Z" fill="url(#paint1_linear_165_2040)"/>
<path fill-rule="evenodd" clip-rule="evenodd" d="M8.86358 0.568356C8.75769 0.339612 8.45091 -0.036815 7.56667 0.00290829C5.50859 0.104989 3.63226 0.986348 2.25919 2.38782C1.97378 2.90682 1.7429 3.46346 1.57495 4.05094C0.704989 7.14372 1.86811 10.4886 4.28762 12.4779C4.86692 12.9554 5.51641 13.3516 6.22705 13.6461C6.33981 13.6959 6.45276 13.7455 6.56815 13.7879C8.7742 14.5996 11.2005 14.4037 13.2313 13.2693C13.1305 13.0308 12.8575 12.7246 12.1521 12.6011C11.6738 12.5169 11.2041 12.3864 10.7556 12.1974C9.09379 11.5065 7.84738 10.1662 7.21831 8.57298C6.65969 7.1708 6.5796 5.58028 7.1114 4.09003C7.41266 3.25869 7.86287 2.51481 8.46374 1.87574C9.04937 1.25592 8.96484 0.78714 8.86358 0.568356Z" fill="url(#paint2_linear_165_2040)"/>
<path d="M13.2761 13.4174C13.3279 13.6594 13.3023 14.1373 12.5712 14.6378C10.4257 16.0743 7.73313 16.3937 5.30589 15.5052C5.18996 15.4628 5.07649 15.4132 4.9632 15.3635C4.24923 15.069 3.5967 14.6731 3.01468 14.1957C0.583844 12.2073 -0.584719 8.8638 0.289316 5.77232C0.664402 4.46692 1.35194 3.31384 2.25919 2.38782C1.97378 2.90682 1.7429 3.46346 1.57495 4.05094C0.704989 7.14372 1.86811 10.4886 4.28762 12.4779C4.86692 12.9554 5.51641 13.3516 6.22705 13.6461C6.33981 13.6959 6.45276 13.7455 6.56815 13.7879C8.7742 14.5996 11.2005 14.4037 13.2313 13.2693C13.254 13.3231 13.2679 13.3734 13.2761 13.4174Z" fill="url(#paint3_linear_165_2040)"/>
<path d="M12.0693 7.87695C11.7866 8.08559 11.2846 8.22446 10.7121 8.22446C10.1395 8.22446 9.63721 8.08565 9.35449 7.87695" stroke="url(#paint4_linear_165_2040)" stroke-width="0.246154" stroke-linecap="round"/>
<path d="M18.2236 7.87695C17.9409 8.08559 17.4389 8.22446 16.8664 8.22446C16.2938 8.22446 15.7915 8.08565 15.5088 7.87695" stroke="url(#paint5_linear_165_2040)" stroke-width="0.246154" stroke-linecap="round"/>
<path fill-rule="evenodd" clip-rule="evenodd" d="M13.7857 3.19971C13.7857 4.96702 14.8455 6.39971 16.0011 6.39971C14.8455 6.39971 13.7857 7.8324 13.7857 9.59971C13.7857 7.8324 12.7259 6.39971 11.5703 6.39971C12.7259 6.39971 13.7857 4.96702 13.7857 3.19971ZM13.7857 6.15355C13.6497 6.15355 13.5395 6.26376 13.5395 6.39971C13.5395 6.53565 13.6497 6.64586 13.7857 6.64586C13.9216 6.64586 14.0319 6.53565 14.0319 6.39971C14.0319 6.26376 13.9216 6.15355 13.7857 6.15355Z" fill="url(#paint6_linear_165_2040)"/>
</g>
<path d="M32.6608 11.556V11.136C32.6608 10.842 32.8078 10.695 33.1018 10.695H34.8868C35.1808 10.695 35.3278 10.842 35.3278 11.136V11.304C35.3278 11.836 35.4328 12.2 35.6428 12.396C35.8528 12.592 36.2378 12.69 36.7978 12.69H37.7848C38.3308 12.69 38.7088 12.585 38.9188 12.375C39.1428 12.165 39.2548 11.773 39.2548 11.199V10.947C39.2548 10.541 39.0868 10.233 38.7508 10.023C38.4288 9.799 38.0228 9.666 37.5328 9.624C37.0428 9.582 36.5108 9.505 35.9368 9.393C35.3768 9.267 34.8518 9.113 34.3618 8.931C33.8718 8.735 33.4588 8.364 33.1228 7.818C32.8008 7.258 32.6398 6.544 32.6398 5.676V4.941C32.6398 3.849 32.9478 3.002 33.5638 2.4C34.1798 1.798 35.0338 1.497 36.1258 1.497H38.2258C39.3318 1.497 40.1928 1.798 40.8088 2.4C41.4248 3.002 41.7328 3.849 41.7328 4.941V5.34C41.7328 5.634 41.5858 5.781 41.2918 5.781H39.5068C39.2128 5.781 39.0658 5.634 39.0658 5.34V5.214C39.0658 4.668 38.9608 4.297 38.7508 4.101C38.5408 3.905 38.1558 3.807 37.5958 3.807H36.7768C36.2028 3.807 35.8108 3.919 35.6008 4.143C35.4048 4.353 35.3068 4.773 35.3068 5.403V5.802C35.3068 6.46 35.8808 6.838 37.0288 6.936C38.2188 7.034 39.2758 7.272 40.1998 7.65C40.6898 7.86 41.0958 8.238 41.4178 8.784C41.7538 9.316 41.9218 10.002 41.9218 10.842V11.556C41.9218 12.648 41.6138 13.495 40.9978 14.097C40.3818 14.699 39.5278 15 38.4358 15H36.1468C35.0548 15 34.2008 14.699 33.5848 14.097C32.9688 13.495 32.6608 12.648 32.6608 11.556ZM48.6011 15H47.9081C46.8301 15 46.0111 14.706 45.4511 14.118C44.9051 13.53 44.6321 12.683 44.6321 11.577V4.731C44.6321 4.437 44.7791 4.29 45.0731 4.29H46.8581C47.1521 4.29 47.2991 4.437 47.2991 4.731V11.451C47.2991 11.899 47.3901 12.221 47.5721 12.417C47.7681 12.599 48.0831 12.69 48.5171 12.69H49.2941C50.2601 12.69 50.7431 12.158 50.7431 11.094V4.731C50.7431 4.437 50.8901 4.29 51.1841 4.29H52.9481C53.2561 4.29 53.4101 4.437 53.4101 4.731V14.559C53.4101 14.853 53.2561 15 52.9481 15H51.1841C50.8901 15 50.7431 14.853 50.7431 14.559V13.866H50.6591C50.5051 14.244 50.2321 14.531 49.8401 14.727C49.4481 14.909 49.0351 15 48.6011 15ZM58.5853 17.856H56.8003C56.5063 17.856 56.3593 17.716 56.3593 17.436V4.731C56.3593 4.437 56.5063 4.29 56.8003 4.29H58.5853C58.8793 4.29 59.0263 4.437 59.0263 4.731V5.424H59.1103C59.2643 5.046 59.5373 4.766 59.9293 4.584C60.3213 4.388 60.7343 4.29 61.1683 4.29H62.0293C63.1073 4.29 63.9193 4.584 64.4653 5.172C65.0253 5.76 65.3053 6.607 65.3053 7.713V11.577C65.3053 12.683 65.0253 13.53 64.4653 14.118C63.9193 14.706 63.1073 15 62.0293 15H61.1683C60.7343 15 60.3213 14.909 59.9293 14.727C59.5373 14.531 59.2643 14.244 59.1103 13.866H59.0263V17.436C59.0263 17.716 58.8793 17.856 58.5853 17.856ZM60.4753 12.69H61.3993C61.8473 12.69 62.1623 12.599 62.3443 12.417C62.5403 12.221 62.6383 11.899 62.6383 11.451V7.839C62.6383 7.391 62.5403 7.076 62.3443 6.894C62.1623 6.698 61.8473 6.6 61.3993 6.6H60.4753C59.5093 6.6 59.0263 7.132 59.0263 8.196V11.094C59.0263 12.158 59.5093 12.69 60.4753 12.69ZM75.939 15H71.298C70.192 15 69.338 14.706 68.736 14.118C68.134 13.53 67.833 12.683 67.833 11.577V7.713C67.833 6.607 68.134 5.76 68.736 5.172C69.338 4.584 70.192 4.29 71.298 4.29H72.957C74.063 4.29 74.917 4.584 75.519 5.172C76.121 5.76 76.422 6.607 76.422 7.713V10.38C76.422 10.674 76.275 10.821 75.981 10.821H70.71C70.542 10.821 70.458 10.898 70.458 11.052V11.514C70.458 11.948 70.549 12.263 70.731 12.459C70.927 12.641 71.249 12.732 71.697 12.732H75.939C76.233 12.732 76.38 12.886 76.38 13.194V14.58C76.38 14.734 76.345 14.846 76.275 14.916C76.219 14.972 76.107 15 75.939 15ZM70.71 9.036H73.566C73.72 9.036 73.797 8.959 73.797 8.805V7.797C73.797 7.349 73.706 7.034 73.524 6.852C73.342 6.67 73.027 6.579 72.579 6.579H71.697C71.249 6.579 70.934 6.67 70.752 6.852C70.57 7.034 70.479 7.349 70.479 7.797V8.805C70.479 8.959 70.556 9.036 70.71 9.036ZM81.276 15H79.491C79.197 15 79.05 14.853 79.05 14.559V4.731C79.05 4.437 79.197 4.29 79.491 4.29H81.276C81.57 4.29 81.717 4.437 81.717 4.731V5.445H81.801C81.955 5.067 82.228 4.78 82.62 4.584C83.012 4.388 83.425 4.29 83.859 4.29H84.615C84.895 4.29 85.035 4.437 85.035 4.731V6.18C85.035 6.348 85 6.467 84.93 6.537C84.874 6.593 84.769 6.614 84.615 6.6H83.166C82.2 6.6 81.717 7.146 81.717 8.238V14.559C81.717 14.853 81.57 15 81.276 15ZM86.8753 11.556V11.136C86.8753 10.842 87.0223 10.695 87.3163 10.695H89.1013C89.3953 10.695 89.5423 10.842 89.5423 11.136V11.304C89.5423 11.836 89.6473 12.2 89.8573 12.396C90.0673 12.592 90.4523 12.69 91.0123 12.69H91.9993C92.5453 12.69 92.9233 12.585 93.1333 12.375C93.3573 12.165 93.4693 11.773 93.4693 11.199V10.947C93.4693 10.541 93.3013 10.233 92.9653 10.023C92.6433 9.799 92.2373 9.666 91.7473 9.624C91.2573 9.582 90.7253 9.505 90.1513 9.393C89.5913 9.267 89.0663 9.113 88.5763 8.931C88.0863 8.735 87.6733 8.364 87.3373 7.818C87.0153 7.258 86.8543 6.544 86.8543 5.676V4.941C86.8543 3.849 87.1623 3.002 87.7783 2.4C88.3943 1.798 89.2483 1.497 90.3403 1.497H92.4403C93.5463 1.497 94.4073 1.798 95.0233 2.4C95.6393 3.002 95.9473 3.849 95.9473 4.941V5.34C95.9473 5.634 95.8003 5.781 95.5063 5.781H93.7213C93.4273 5.781 93.2803 5.634 93.2803 5.34V5.214C93.2803 4.668 93.1753 4.297 92.9653 4.101C92.7553 3.905 92.3703 3.807 91.8103 3.807H90.9913C90.4173 3.807 90.0253 3.919 89.8153 4.143C89.6193 4.353 89.5213 4.773 89.5213 5.403V5.802C89.5213 6.46 90.0953 6.838 91.2433 6.936C92.4333 7.034 93.4903 7.272 94.4143 7.65C94.9043 7.86 95.3103 8.238 95.6323 8.784C95.9683 9.316 96.1363 10.002 96.1363 10.842V11.556C96.1363 12.648 95.8283 13.495 95.2123 14.097C94.5963 14.699 93.7423 15 92.6503 15H90.3613C89.2693 15 88.4153 14.699 87.7993 14.097C87.1833 13.495 86.8753 12.648 86.8753 11.556ZM101.283 15H99.4976C99.2036 15 99.0566 14.853 99.0566 14.559V0.677999C99.0566 0.384 99.2036 0.237 99.4976 0.237H101.283C101.577 0.237 101.724 0.384 101.724 0.677999V14.559C101.724 14.853 101.577 15 101.283 15ZM112.666 15H108.025C106.919 15 106.065 14.706 105.463 14.118C104.861 13.53 104.56 12.683 104.56 11.577V7.713C104.56 6.607 104.861 5.76 105.463 5.172C106.065 4.584 106.919 4.29 108.025 4.29H109.684C110.79 4.29 111.644 4.584 112.246 5.172C112.848 5.76 113.149 6.607 113.149 7.713V10.38C113.149 10.674 113.002 10.821 112.708 10.821H107.437C107.269 10.821 107.185 10.898 107.185 11.052V11.514C107.185 11.948 107.276 12.263 107.458 12.459C107.654 12.641 107.976 12.732 108.424 12.732H112.666C112.96 12.732 113.107 12.886 113.107 13.194V14.58C113.107 14.734 113.072 14.846 113.002 14.916C112.946 14.972 112.834 15 112.666 15ZM107.437 9.036H110.293C110.447 9.036 110.524 8.959 110.524 8.805V7.797C110.524 7.349 110.433 7.034 110.251 6.852C110.069 6.67 109.754 6.579 109.306 6.579H108.424C107.976 6.579 107.661 6.67 107.479 6.852C107.297 7.034 107.206 7.349 107.206 7.797V8.805C107.206 8.959 107.283 9.036 107.437 9.036ZM123.673 15H119.032C117.926 15 117.072 14.706 116.47 14.118C115.868 13.53 115.567 12.683 115.567 11.577V7.713C115.567 6.607 115.868 5.76 116.47 5.172C117.072 4.584 117.926 4.29 119.032 4.29H120.691C121.797 4.29 122.651 4.584 123.253 5.172C123.855 5.76 124.156 6.607 124.156 7.713V10.38C124.156 10.674 124.009 10.821 123.715 10.821H118.444C118.276 10.821 118.192 10.898 118.192 11.052V11.514C118.192 11.948 118.283 12.263 118.465 12.459C118.661 12.641 118.983 12.732 119.431 12.732H123.673C123.967 12.732 124.114 12.886 124.114 13.194V14.58C124.114 14.734 124.079 14.846 124.009 14.916C123.953 14.972 123.841 15 123.673 15ZM118.444 9.036H121.3C121.454 9.036 121.531 8.959 121.531 8.805V7.797C121.531 7.349 121.44 7.034 121.258 6.852C121.076 6.67 120.761 6.579 120.313 6.579H119.431C118.983 6.579 118.668 6.67 118.486 6.852C118.304 7.034 118.213 7.349 118.213 7.797V8.805C118.213 8.959 118.29 9.036 118.444 9.036ZM129.01 17.856H127.225C126.931 17.856 126.784 17.716 126.784 17.436V4.731C126.784 4.437 126.931 4.29 127.225 4.29H129.01C129.304 4.29 129.451 4.437 129.451 4.731V5.424H129.535C129.689 5.046 129.962 4.766 130.354 4.584C130.746 4.388 131.159 4.29 131.593 4.29H132.454C133.532 4.29 134.344 4.584 134.89 5.172C135.45 5.76 135.73 6.607 135.73 7.713V11.577C135.73 12.683 135.45 13.53 134.89 14.118C134.344 14.706 133.532 15 132.454 15H131.593C131.159 15 130.746 14.909 130.354 14.727C129.962 14.531 129.689 14.244 129.535 13.866H129.451V17.436C129.451 17.716 129.304 17.856 129.01 17.856ZM130.9 12.69H131.824C132.272 12.69 132.587 12.599 132.769 12.417C132.965 12.221 133.063 11.899 133.063 11.451V7.839C133.063 7.391 132.965 7.076 132.769 6.894C132.587 6.698 132.272 6.6 131.824 6.6H130.9C129.934 6.6 129.451 7.132 129.451 8.196V11.094C129.451 12.158 129.934 12.69 130.9 12.69ZM140.085 15H138.069C137.817 15 137.733 14.853 137.817 14.559L141.135 1.938C141.233 1.644 141.443 1.497 141.765 1.497H144.558C144.908 1.497 145.118 1.644 145.188 1.938L148.506 14.559C148.59 14.853 148.506 15 148.254 15H146.238C146.084 15 145.979 14.972 145.923 14.916C145.867 14.846 145.825 14.727 145.797 14.559L145.209 12.249H141.114L140.526 14.559C140.498 14.727 140.449 14.846 140.379 14.916C140.323 14.972 140.225 15 140.085 15ZM143.13 4.038L141.618 10.107H144.726L143.214 4.038H143.13ZM150.892 2.484V0.656999C150.892 0.377 151.032 0.237 151.312 0.237H153.139C153.419 0.237 153.559 0.37 153.559 0.636V2.484C153.559 2.764 153.419 2.904 153.139 2.904H151.312C151.032 2.904 150.892 2.764 150.892 2.484ZM150.892 14.559V4.731C150.892 4.437 151.032 4.29 151.312 4.29H153.118C153.412 4.29 153.559 4.437 153.559 4.731V14.559C153.559 14.741 153.524 14.86 153.454 14.916C153.398 14.972 153.293 15 153.139 15H151.333C151.039 15 150.892 14.853 150.892 14.559Z" fill="#EEF0FF"/>
<defs>
<linearGradient id="paint0_linear_165_2040" x1="20.9546" y1="0" x2="20.9546" y2="15.9933" gradientUnits="userSpaceOnUse">
<stop offset="0.418269" stop-color="#5280A5"/>
<stop offset="1" stop-color="#563AC8"/>
</linearGradient>
<linearGradient id="paint1_linear_165_2040" x1="20.9546" y1="0" x2="20.9546" y2="15.9933" gradientUnits="userSpaceOnUse">
<stop offset="0.418269" stop-color="#5280A5"/>
<stop offset="1" stop-color="#563AC8"/>
</linearGradient>
<linearGradient id="paint2_linear_165_2040" x1="6.64681" y1="0" x2="6.64681" y2="16" gradientUnits="userSpaceOnUse">
<stop offset="0.418269" stop-color="#5280A5"/>
<stop offset="1" stop-color="#563AC8"/>
</linearGradient>
<linearGradient id="paint3_linear_165_2040" x1="6.64681" y1="0" x2="6.64681" y2="16" gradientUnits="userSpaceOnUse">
<stop offset="0.418269" stop-color="#5280A5"/>
<stop offset="1" stop-color="#563AC8"/>
</linearGradient>
<linearGradient id="paint4_linear_165_2040" x1="10.7119" y1="7.87695" x2="10.7119" y2="8.22446" gradientUnits="userSpaceOnUse">
<stop offset="0.418269" stop-color="#5280A5"/>
<stop offset="1" stop-color="#563AC8"/>
</linearGradient>
<linearGradient id="paint5_linear_165_2040" x1="16.8662" y1="7.87695" x2="16.8662" y2="8.22446" gradientUnits="userSpaceOnUse">
<stop offset="0.418269" stop-color="#5280A5"/>
<stop offset="1" stop-color="#563AC8"/>
</linearGradient>
<linearGradient id="paint6_linear_165_2040" x1="13.7857" y1="3.19971" x2="13.7857" y2="9.59971" gradientUnits="userSpaceOnUse">
<stop offset="0.418269" stop-color="#5280A5"/>
<stop offset="1" stop-color="#563AC8"/>
</linearGradient>
</defs>
</svg>
