<?xml version="1.0" encoding="UTF-8"?>
<svg id="Capa_1" data-name="Capa 1" xmlns="http://www.w3.org/2000/svg" xmlns:xlink="http://www.w3.org/1999/xlink" viewBox="0 0 258.64 222.14">
  <defs>
    <style>
      .cls-1 {
        fill: url(#Degradado_sin_nombre_20);
      }

      .cls-1, .cls-2, .cls-3, .cls-4 {
        fill-rule: evenodd;
      }

      .cls-2 {
        fill: url(#Degradado_sin_nombre);
      }

      .cls-5 {
        fill: url(#Degradado_sin_nombre_16);
      }

      .cls-6 {
        fill: url(#Degradado_sin_nombre_19);
      }

      .cls-7 {
        fill: url(#Degradado_sin_nombre_11);
      }

      .cls-8 {
        fill: url(#Degradado_sin_nombre_4);
      }

      .cls-9 {
        stroke: url(#Degradado_sin_nombre_6);
      }

      .cls-9, .cls-10 {
        fill: none;
        stroke-linecap: round;
        stroke-width: 2.14px;
      }

      .cls-11 {
        fill: url(#Degradado_sin_nombre_2);
      }

      .cls-10 {
        stroke: url(#Degradado_sin_nombre_5);
      }

      .cls-12 {
        fill: url(#Degradado_sin_nombre_9);
      }

      .cls-13 {
        fill: url(#Degradado_sin_nombre_17);
      }

      .cls-14 {
        fill: url(#Degradado_sin_nombre_13);
      }

      .cls-15 {
        fill: url(#Degradado_sin_nombre_7);
      }

      .cls-16 {
        fill: url(#Degradado_sin_nombre_10);
      }

      .cls-17 {
        fill: url(#Degradado_sin_nombre_14);
      }

      .cls-3 {
        fill: url(#Degradado_sin_nombre_18);
      }

      .cls-4 {
        fill: url(#Degradado_sin_nombre_3);
      }

      .cls-18 {
        fill: url(#Degradado_sin_nombre_15);
      }

      .cls-19 {
        fill: url(#Degradado_sin_nombre_8);
      }

      .cls-20 {
        fill: url(#Degradado_sin_nombre_12);
      }
    </style>
    <linearGradient id="Degradado_sin_nombre" data-name="Degradado sin nombre" x1="187.41" y1="213.03" x2="187.41" y2="74.06" gradientTransform="translate(0 213.03) scale(1 -1)" gradientUnits="userSpaceOnUse">
      <stop offset=".42" stop-color="#5280a5"/>
      <stop offset="1" stop-color="#563ac8"/>
    </linearGradient>
    <linearGradient id="Degradado_sin_nombre_2" data-name="Degradado sin nombre 2" x1="192.76" y1="213.03" x2="192.76" y2="74.06" gradientTransform="translate(0 213.03) scale(1 -1)" gradientUnits="userSpaceOnUse">
      <stop offset=".42" stop-color="#5280a5"/>
      <stop offset="1" stop-color="#563ac8"/>
    </linearGradient>
    <linearGradient id="Degradado_sin_nombre_3" data-name="Degradado sin nombre 3" x1="73.75" y1="213.03" x2="73.75" y2="74" gradientTransform="translate(0 213.03) scale(1 -1)" gradientUnits="userSpaceOnUse">
      <stop offset=".42" stop-color="#5280a5"/>
      <stop offset="1" stop-color="#563ac8"/>
    </linearGradient>
    <linearGradient id="Degradado_sin_nombre_4" data-name="Degradado sin nombre 4" x1="68.43" y1="213.03" x2="68.43" y2="74" gradientTransform="translate(0 213.03) scale(1 -1)" gradientUnits="userSpaceOnUse">
      <stop offset=".42" stop-color="#5280a5"/>
      <stop offset="1" stop-color="#563ac8"/>
    </linearGradient>
    <linearGradient id="Degradado_sin_nombre_5" data-name="Degradado sin nombre 5" x1="103.75" y1="144.59" x2="103.75" y2="141.57" gradientTransform="translate(0 213.03) scale(1 -1)" gradientUnits="userSpaceOnUse">
      <stop offset=".42" stop-color="#5280a5"/>
      <stop offset="1" stop-color="#563ac8"/>
    </linearGradient>
    <linearGradient id="Degradado_sin_nombre_6" data-name="Degradado sin nombre 6" x1="157.23" y1="144.59" x2="157.23" y2="141.57" gradientTransform="translate(0 213.03) scale(1 -1)" gradientUnits="userSpaceOnUse">
      <stop offset=".42" stop-color="#5280a5"/>
      <stop offset="1" stop-color="#563ac8"/>
    </linearGradient>
    <linearGradient id="Degradado_sin_nombre_7" data-name="Degradado sin nombre 7" x1="9.93" y1="28.58" x2="9.93" y2="-9.11" gradientTransform="translate(0 213.03) scale(1 -1)" gradientUnits="userSpaceOnUse">
      <stop offset=".42" stop-color="#5280a5"/>
      <stop offset="1" stop-color="#563ac8"/>
    </linearGradient>
    <linearGradient id="Degradado_sin_nombre_8" data-name="Degradado sin nombre 8" x1="35.04" y1="28.58" x2="35.04" y2="-9.11" gradientTransform="translate(0 213.03) scale(1 -1)" gradientUnits="userSpaceOnUse">
      <stop offset=".42" stop-color="#5280a5"/>
      <stop offset="1" stop-color="#563ac8"/>
    </linearGradient>
    <linearGradient id="Degradado_sin_nombre_9" data-name="Degradado sin nombre 9" x1="60.3" y1="28.58" x2="60.3" y2="-9.11" gradientTransform="translate(0 213.03) scale(1 -1)" gradientUnits="userSpaceOnUse">
      <stop offset=".42" stop-color="#5280a5"/>
      <stop offset="1" stop-color="#563ac8"/>
    </linearGradient>
    <linearGradient id="Degradado_sin_nombre_10" data-name="Degradado sin nombre 10" x1="84.46" y1="28.58" x2="84.46" y2="-9.11" gradientTransform="translate(0 213.03) scale(1 -1)" gradientUnits="userSpaceOnUse">
      <stop offset=".42" stop-color="#5280a5"/>
      <stop offset="1" stop-color="#563ac8"/>
    </linearGradient>
    <linearGradient id="Degradado_sin_nombre_11" data-name="Degradado sin nombre 11" x1="105.67" y1="28.58" x2="105.67" y2="-9.11" gradientTransform="translate(0 213.03) scale(1 -1)" gradientUnits="userSpaceOnUse">
      <stop offset=".42" stop-color="#5280a5"/>
      <stop offset="1" stop-color="#563ac8"/>
    </linearGradient>
    <linearGradient id="Degradado_sin_nombre_12" data-name="Degradado sin nombre 12" x1="125.89" y1="28.58" x2="125.89" y2="-9.11" gradientTransform="translate(0 213.03) scale(1 -1)" gradientUnits="userSpaceOnUse">
      <stop offset=".42" stop-color="#5280a5"/>
      <stop offset="1" stop-color="#563ac8"/>
    </linearGradient>
    <linearGradient id="Degradado_sin_nombre_13" data-name="Degradado sin nombre 13" x1="144.91" y1="28.58" x2="144.91" y2="-9.11" gradientTransform="translate(0 213.03) scale(1 -1)" gradientUnits="userSpaceOnUse">
      <stop offset=".42" stop-color="#5280a5"/>
      <stop offset="1" stop-color="#563ac8"/>
    </linearGradient>
    <linearGradient id="Degradado_sin_nombre_14" data-name="Degradado sin nombre 14" x1="163.02" y1="28.58" x2="163.02" y2="-9.11" gradientTransform="translate(0 213.03) scale(1 -1)" gradientUnits="userSpaceOnUse">
      <stop offset=".42" stop-color="#5280a5"/>
      <stop offset="1" stop-color="#563ac8"/>
    </linearGradient>
    <linearGradient id="Degradado_sin_nombre_15" data-name="Degradado sin nombre 15" x1="186.56" y1="28.58" x2="186.56" y2="-9.11" gradientTransform="translate(0 213.03) scale(1 -1)" gradientUnits="userSpaceOnUse">
      <stop offset=".42" stop-color="#5280a5"/>
      <stop offset="1" stop-color="#563ac8"/>
    </linearGradient>
    <linearGradient id="Degradado_sin_nombre_16" data-name="Degradado sin nombre 16" x1="210.94" y1="28.58" x2="210.94" y2="-9.11" gradientTransform="translate(0 213.03) scale(1 -1)" gradientUnits="userSpaceOnUse">
      <stop offset=".42" stop-color="#5280a5"/>
      <stop offset="1" stop-color="#563ac8"/>
    </linearGradient>
    <linearGradient id="Degradado_sin_nombre_17" data-name="Degradado sin nombre 17" x1="236.4" y1="28.58" x2="236.4" y2="-9.11" gradientTransform="translate(0 213.03) scale(1 -1)" gradientUnits="userSpaceOnUse">
      <stop offset=".42" stop-color="#5280a5"/>
      <stop offset="1" stop-color="#563ac8"/>
    </linearGradient>
    <linearGradient id="Degradado_sin_nombre_18" data-name="Degradado sin nombre 18" x1="255.79" y1="28.58" x2="255.79" y2="-9.11" gradientTransform="translate(0 213.03) scale(1 -1)" gradientUnits="userSpaceOnUse">
      <stop offset=".42" stop-color="#5280a5"/>
      <stop offset="1" stop-color="#563ac8"/>
    </linearGradient>
    <linearGradient id="Degradado_sin_nombre_19" data-name="Degradado sin nombre 19" x1="255.79" y1="28.58" x2="255.79" y2="-9.11" gradientTransform="translate(0 213.03) scale(1 -1)" gradientUnits="userSpaceOnUse">
      <stop offset=".42" stop-color="#5280a5"/>
      <stop offset="1" stop-color="#563ac8"/>
    </linearGradient>
    <linearGradient id="Degradado_sin_nombre_20" data-name="Degradado sin nombre 20" x1="130.46" y1="185.23" x2="130.46" y2="129.61" gradientTransform="translate(0 213.03) scale(1 -1)" gradientUnits="userSpaceOnUse">
      <stop offset=".42" stop-color="#5280a5"/>
      <stop offset="1" stop-color="#563ac8"/>
    </linearGradient>
  </defs>
  <path class="cls-2" d="M173.41,4.94c.92-1.99,3.6-5.26,11.32-4.91,17.97.89,34.35,8.54,46.34,20.71,2.49,4.51,4.51,9.34,5.97,14.45,7.6,26.86-2.56,55.92-23.68,73.19-5.06,4.15-10.73,7.59-16.93,10.15-.98.43-1.97.86-2.98,1.23-19.26,7.05-40.44,5.35-58.17-4.5.88-2.07,3.26-4.73,9.42-5.8,4.18-.73,8.28-1.86,12.19-3.51,14.51-6,25.39-17.64,30.88-31.48,4.88-12.18,5.58-25.99.93-38.94-2.63-7.22-6.56-13.68-11.81-19.23-5.11-5.38-4.37-9.46-3.49-11.36Z"/>
  <path class="cls-11" d="M134.88,116.54c-.45,2.1-.23,6.25,6.15,10.6,18.73,12.48,42.24,15.25,63.43,7.53,1.01-.37,2-.8,2.99-1.23,6.23-2.56,11.93-6,17.01-10.14,21.22-17.27,31.42-46.31,23.79-73.16-3.28-11.34-9.28-21.35-17.2-29.4,2.49,4.51,4.51,9.34,5.97,14.45,7.6,26.86-2.56,55.92-23.68,73.19-5.06,4.15-10.73,7.59-16.93,10.15-.98.43-1.97.86-2.98,1.23-19.26,7.05-40.44,5.35-58.17-4.5-.2.47-.32.9-.39,1.29Z"/>
  <path class="cls-4" d="M87.69,4.94c-.92-1.99-3.59-5.26-11.27-4.91-17.88.89-34.19,8.55-46.12,20.72-2.48,4.51-4.49,9.35-5.95,14.45-7.56,26.88,2.55,55.94,23.57,73.23,5.03,4.15,10.68,7.59,16.85,10.15.98.43,1.96.86,2.96,1.23,19.17,7.05,40.25,5.35,57.9-4.51-.88-2.07-3.25-4.73-9.38-5.81-4.16-.73-8.24-1.87-12.14-3.51-14.44-6-25.27-17.65-30.74-31.49-4.85-12.18-5.55-26.01-.93-38.95,2.62-7.22,6.53-13.69,11.75-19.24,5.09-5.39,4.35-9.46,3.47-11.36Z"/>
  <path class="cls-8" d="M126.03,116.59c.45,2.1.23,6.26-6.12,10.6-18.64,12.48-42.04,15.26-63.13,7.54-1.01-.37-1.99-.8-2.98-1.23-6.2-2.56-11.87-6-16.93-10.15C15.75,106.07,5.59,77.02,13.19,50.16c3.26-11.34,9.23-21.36,17.12-29.41-2.48,4.51-4.49,9.35-5.95,14.45-7.56,26.88,2.55,55.94,23.57,73.23,5.03,4.15,10.68,7.59,16.85,10.15.98.43,1.96.86,2.96,1.23,19.17,7.05,40.25,5.35,57.9-4.51.2.47.32.9.39,1.29Z"/>
  <path class="cls-10" d="M115.55,68.45c-2.46,1.81-6.82,3.02-11.79,3.02s-9.34-1.21-11.8-3.02"/>
  <path class="cls-9" d="M169.02,68.45c-2.46,1.81-6.82,3.02-11.79,3.02s-9.34-1.21-11.8-3.02"/>
  <path class="cls-15" d="M.04,208.67v-.9c0-.63.31-.94.94-.94h3.82c.63,0,.94.31.94.94v.36c0,1.14.22,1.92.67,2.34.45.42,1.27.63,2.47.63h2.11c1.17,0,1.98-.22,2.43-.67.48-.45.72-1.29.72-2.52v-.54c0-.87-.36-1.53-1.08-1.98-.69-.48-1.56-.76-2.61-.85-1.05-.09-2.19-.25-3.41-.49-1.2-.27-2.32-.6-3.37-.99-1.05-.42-1.93-1.21-2.65-2.38-.69-1.2-1.03-2.73-1.03-4.58v-1.57c0-2.34.66-4.15,1.98-5.43,1.32-1.29,3.14-1.93,5.48-1.93h4.49c2.37,0,4.21.64,5.52,1.93,1.32,1.29,1.98,3.1,1.98,5.43v.85c0,.63-.31.94-.94.94h-3.82c-.63,0-.94-.31-.94-.94v-.27c0-1.17-.22-1.96-.67-2.38-.45-.42-1.27-.63-2.47-.63h-1.75c-1.23,0-2.07.24-2.52.72-.42.45-.63,1.35-.63,2.7v.85c0,1.41,1.23,2.22,3.68,2.43,2.55.21,4.81.72,6.78,1.53,1.05.45,1.92,1.26,2.61,2.42.72,1.14,1.08,2.61,1.08,4.4v1.53c0,2.34-.66,4.15-1.98,5.43-1.32,1.29-3.14,1.93-5.48,1.93h-4.9c-2.34,0-4.16-.64-5.48-1.93-1.32-1.29-1.98-3.1-1.98-5.43Z"/>
  <path class="cls-19" d="M34.14,216.03h-1.48c-2.31,0-4.06-.63-5.25-1.89-1.17-1.26-1.75-3.07-1.75-5.44v-14.64c0-.63.31-.94.94-.94h3.82c.63,0,.94.31.94.94v14.37c0,.96.19,1.65.58,2.07.42.39,1.09.58,2.02.58h1.66c2.07,0,3.1-1.14,3.1-3.41v-13.61c0-.63.31-.94.94-.94h3.77c.66,0,.99.31.99.94v21.02c0,.63-.33.94-.99.94h-3.77c-.63,0-.94-.31-.94-.94v-1.48h-.18c-.33.81-.91,1.42-1.75,1.84-.84.39-1.72.58-2.65.58Z"/>
  <path class="cls-12" d="M55.5,222.14h-3.82c-.63,0-.94-.3-.94-.9v-27.18c0-.63.31-.94.94-.94h3.82c.63,0,.94.31.94.94v1.48h.18c.33-.81.91-1.41,1.75-1.8.84-.42,1.72-.63,2.65-.63h1.84c2.31,0,4.04.63,5.21,1.89,1.2,1.26,1.8,3.07,1.8,5.44v8.26c0,2.37-.6,4.18-1.8,5.44-1.17,1.26-2.9,1.89-5.21,1.89h-1.84c-.93,0-1.81-.2-2.65-.58-.84-.42-1.42-1.03-1.75-1.84h-.18v7.64c0,.6-.31.9-.94.9ZM59.54,211.09h1.98c.96,0,1.63-.19,2.02-.58.42-.42.63-1.11.63-2.07v-7.73c0-.96-.21-1.63-.63-2.02-.39-.42-1.06-.63-2.02-.63h-1.98c-2.07,0-3.1,1.14-3.1,3.41v6.2c0,2.28,1.03,3.41,3.1,3.41Z"/>
  <path class="cls-16" d="M92.62,216.03h-9.93c-2.37,0-4.19-.63-5.48-1.89-1.29-1.26-1.93-3.07-1.93-5.44v-8.26c0-2.37.64-4.18,1.93-5.44,1.29-1.26,3.11-1.89,5.48-1.89h3.55c2.37,0,4.19.63,5.48,1.89,1.29,1.26,1.93,3.07,1.93,5.44v5.7c0,.63-.32.94-.94.94h-11.27c-.36,0-.54.17-.54.49v.99c0,.93.2,1.6.58,2.02.42.39,1.11.58,2.07.58h9.07c.63,0,.94.33.94.99v2.97c0,.33-.08.57-.23.72-.12.12-.36.18-.72.18ZM81.43,203.28h6.11c.33,0,.49-.16.49-.49v-2.16c0-.96-.19-1.63-.58-2.02-.39-.39-1.06-.58-2.02-.58h-1.89c-.96,0-1.63.2-2.02.58-.39.39-.58,1.06-.58,2.02v2.16c0,.33.17.49.49.49Z"/>
  <path class="cls-7" d="M104.03,216.03h-3.82c-.63,0-.94-.31-.94-.94v-21.02c0-.63.31-.94.94-.94h3.82c.63,0,.94.31.94.94v1.53h.18c.33-.81.91-1.42,1.75-1.84.84-.42,1.72-.63,2.65-.63h1.62c.6,0,.9.31.9.94v3.1c0,.36-.07.61-.22.76-.12.12-.34.16-.67.13h-3.1c-2.07,0-3.1,1.17-3.1,3.5v13.52c0,.63-.31.94-.94.94Z"/>
  <path class="cls-20" d="M116.01,208.67v-.9c0-.63.31-.94.94-.94h3.82c.63,0,.94.31.94.94v.36c0,1.14.22,1.92.67,2.34s1.27.63,2.47.63h2.11c1.17,0,1.98-.22,2.43-.67.48-.45.72-1.29.72-2.52v-.54c0-.87-.36-1.53-1.08-1.98-.69-.48-1.56-.76-2.6-.85-1.05-.09-2.19-.25-3.41-.49-1.2-.27-2.32-.6-3.37-.99-1.05-.42-1.93-1.21-2.65-2.38-.69-1.2-1.03-2.73-1.03-4.58v-1.57c0-2.34.66-4.15,1.98-5.43,1.32-1.29,3.14-1.93,5.48-1.93h4.49c2.37,0,4.21.64,5.53,1.93,1.32,1.29,1.98,3.1,1.98,5.43v.85c0,.63-.31.94-.94.94h-3.82c-.63,0-.94-.31-.94-.94v-.27c0-1.17-.22-1.96-.67-2.38-.45-.42-1.27-.63-2.47-.63h-1.75c-1.23,0-2.07.24-2.52.72-.42.45-.63,1.35-.63,2.7v.85c0,1.41,1.23,2.22,3.68,2.43,2.54.21,4.81.72,6.78,1.53,1.05.45,1.92,1.26,2.61,2.42.72,1.14,1.08,2.61,1.08,4.4v1.53c0,2.34-.66,4.15-1.98,5.43-1.32,1.29-3.14,1.93-5.48,1.93h-4.9c-2.34,0-4.16-.64-5.48-1.93-1.32-1.29-1.98-3.1-1.98-5.43Z"/>
  <path class="cls-14" d="M146.82,216.03h-3.82c-.63,0-.94-.31-.94-.94v-29.69c0-.63.31-.94.94-.94h3.82c.63,0,.94.31.94.94v29.69c0,.63-.32.94-.94.94Z"/>
  <path class="cls-17" d="M171.17,216.03h-9.93c-2.37,0-4.19-.63-5.48-1.89-1.29-1.26-1.93-3.07-1.93-5.44v-8.26c0-2.37.64-4.18,1.93-5.44,1.29-1.26,3.11-1.89,5.48-1.89h3.55c2.37,0,4.19.63,5.48,1.89,1.29,1.26,1.93,3.07,1.93,5.44v5.7c0,.63-.31.94-.94.94h-11.27c-.36,0-.54.17-.54.49v.99c0,.93.19,1.6.58,2.02.42.39,1.11.58,2.07.58h9.07c.63,0,.94.33.94.99v2.97c0,.33-.07.57-.22.72-.12.12-.36.18-.72.18ZM159.99,203.28h6.11c.33,0,.49-.16.49-.49v-2.16c0-.96-.19-1.63-.58-2.02-.39-.39-1.06-.58-2.02-.58h-1.89c-.96,0-1.63.2-2.02.58-.39.39-.58,1.06-.58,2.02v2.16c0,.33.16.49.49.49Z"/>
  <path class="cls-18" d="M194.72,216.03h-9.93c-2.36,0-4.19-.63-5.48-1.89-1.29-1.26-1.93-3.07-1.93-5.44v-8.26c0-2.37.64-4.18,1.93-5.44,1.29-1.26,3.11-1.89,5.48-1.89h3.55c2.37,0,4.19.63,5.48,1.89,1.29,1.26,1.93,3.07,1.93,5.44v5.7c0,.63-.31.94-.94.94h-11.27c-.36,0-.54.17-.54.49v.99c0,.93.19,1.6.58,2.02.42.39,1.11.58,2.07.58h9.07c.63,0,.94.33.94.99v2.97c0,.33-.07.57-.22.72-.12.12-.36.18-.72.18ZM183.53,203.28h6.11c.33,0,.49-.16.49-.49v-2.16c0-.96-.2-1.63-.58-2.02-.39-.39-1.06-.58-2.02-.58h-1.89c-.96,0-1.63.2-2.02.58-.39.39-.58,1.06-.58,2.02v2.16c0,.33.16.49.49.49Z"/>
  <path class="cls-5" d="M206.13,222.14h-3.82c-.63,0-.94-.3-.94-.9v-27.18c0-.63.32-.94.94-.94h3.82c.63,0,.94.31.94.94v1.48h.18c.33-.81.91-1.41,1.75-1.8.84-.42,1.72-.63,2.65-.63h1.84c2.31,0,4.04.63,5.21,1.89,1.2,1.26,1.8,3.07,1.8,5.44v8.26c0,2.37-.6,4.18-1.8,5.44-1.17,1.26-2.9,1.89-5.21,1.89h-1.84c-.93,0-1.81-.2-2.65-.58-.84-.42-1.42-1.03-1.75-1.84h-.18v7.64c0,.6-.31.9-.94.9ZM210.17,211.09h1.98c.96,0,1.63-.19,2.02-.58.42-.42.63-1.11.63-2.07v-7.73c0-.96-.21-1.63-.63-2.02-.39-.42-1.06-.63-2.02-.63h-1.98c-2.07,0-3.1,1.14-3.1,3.41v6.2c0,2.28,1.03,3.41,3.1,3.41Z"/>
  <path class="cls-13" d="M229.82,216.03h-4.31c-.54,0-.72-.31-.54-.94l7.1-27c.21-.63.66-.94,1.35-.94h5.97c.75,0,1.2.31,1.35.94l7.1,27c.18.63,0,.94-.54.94h-4.31c-.33,0-.55-.06-.67-.18-.12-.15-.21-.4-.27-.76l-1.26-4.94h-8.76l-1.26,4.94c-.06.36-.16.61-.31.76-.12.12-.33.18-.63.18ZM236.33,192.59l-3.23,12.98h6.65l-3.23-12.98h-.18Z"/>
  <path class="cls-3" d="M252.94,194.07v21.02c0,.63.31.94.94.94h3.86c.33,0,.55-.06.67-.18.15-.12.22-.37.22-.76v-21.02c0-.63-.31-.94-.94-.94h-3.86c-.6,0-.9.31-.9.94Z"/>
  <path class="cls-6" d="M252.94,189.26v-3.91c0-.6.3-.9.9-.9h3.91c.6,0,.9.28.9.85v3.95c0,.6-.3.9-.9.9h-3.91c-.6,0-.9-.3-.9-.9Z"/>
  <path class="cls-1" d="M130.46,27.81c0,15.36,9.21,27.81,19.25,27.81-10.04,0-19.25,12.45-19.25,27.81,0-15.36-9.21-27.81-19.25-27.81,10.04,0,19.25-12.45,19.25-27.81ZM130.46,53.47c-1.18,0-2.14.96-2.14,2.14s.96,2.14,2.14,2.14,2.14-.96,2.14-2.14-.96-2.14-2.14-2.14Z"/>
</svg>