<svg width="24" height="25" viewBox="0 0 24 25" fill="none" xmlns="http://www.w3.org/2000/svg">
<g clip-path="url(#clip0_76_1059)">
<mask id="mask0_76_1059" style="mask-type:luminance" maskUnits="userSpaceOnUse" x="0" y="0" width="24" height="25">
<path d="M0 0.428711H24V24.4287H0V0.428711Z" fill="white" data-index="0" style="visibility: visible;"></path>
</mask>
<g mask="url(#mask0_76_1059)">
<mask id="mask1_76_1059" style="mask-type:luminance" maskUnits="userSpaceOnUse" x="0" y="0" width="24" height="25">
<path d="M0 0.428711H24V24.4287H0V0.428711Z" fill="white" data-index="1" style="visibility: visible;"></path>
</mask>
<g mask="url(#mask1_76_1059)">
<path d="M13.298 2.25375C13.298 3.22975 12.488 4.03875 11.512 4.03875C10.54 4.03875 9.72798 3.22875 9.72798 2.25375C9.72798 1.28075 10.541 0.46875 11.512 0.46875C12.488 0.46875 13.298 1.28175 13.298 2.25375ZM11.512 5.49675C10.46 5.49675 9.64902 6.30675 9.64902 7.36275C9.64902 8.41575 10.459 9.22773 11.514 9.22773C12.567 9.22773 13.379 8.41677 13.379 7.36275C13.379 6.30875 12.554 5.49675 11.512 5.49675ZM11.512 10.5258C10.46 10.5258 9.567 11.4168 9.567 12.4707C9.567 13.5247 10.461 14.4157 11.514 14.4157C12.567 14.4157 13.46 13.5247 13.46 12.4707C13.46 11.4168 12.566 10.5258 11.512 10.5258ZM11.512 15.6327C10.46 15.6327 9.64902 16.4427 9.64902 17.4967C9.64902 18.5508 10.459 19.3627 11.514 19.3627C12.567 19.3627 13.379 18.5517 13.379 17.4967C13.379 16.5247 12.554 15.6327 11.512 15.6327ZM11.512 20.8237C10.54 20.8237 9.72798 21.6327 9.72798 22.6077C9.72798 23.5777 10.541 24.3888 11.512 24.3888C12.489 24.3888 13.298 23.5797 13.298 22.6047C13.298 21.6318 12.488 20.8237 11.512 20.8237ZM16.46 5.25175C15.324 5.25175 14.352 6.22875 14.352 7.36275C14.352 8.49675 15.325 9.46977 16.46 9.46977C17.595 9.46977 18.566 8.49477 18.566 7.36275C18.566 6.22775 17.594 5.25375 16.46 5.25175ZM16.46 10.2817C15.244 10.2817 14.27 11.2548 14.27 12.4717C14.27 13.6878 15.245 14.6587 16.46 14.6587C17.675 14.6587 18.649 13.6878 18.649 12.4698C18.649 11.2537 17.675 10.2817 16.46 10.2817ZM16.46 15.3897C15.324 15.3897 14.352 16.3657 14.352 17.4967C14.352 18.6318 15.325 19.6057 16.46 19.6057C17.595 19.6057 18.566 18.6297 18.566 17.4967C18.566 16.3638 17.595 15.3897 16.46 15.3897ZM21.566 10.0368C20.27 10.0368 19.136 11.0917 19.136 12.4707C19.136 13.7677 20.187 14.9037 21.566 14.9037C22.947 14.9037 24 13.8387 24 12.4597C23.918 11.0778 22.865 10.0287 21.566 10.0368ZM6.486 5.74075C5.594 5.74075 4.866 6.47073 4.866 7.36377C4.866 8.25477 5.595 8.98377 6.486 8.98377C7.37898 8.98377 8.10498 8.25477 8.10498 7.36377C8.10498 6.47073 7.37802 5.74375 6.486 5.74075ZM6.486 10.7677C5.513 10.7677 4.783 11.4967 4.783 12.4707C4.783 13.4457 5.504 14.1738 6.47802 14.1738C7.452 14.1738 8.17302 13.4437 8.17302 12.4707C8.17302 11.4957 7.43802 10.7677 6.46302 10.7677H6.486ZM6.486 15.8748C5.594 15.8748 4.866 16.6057 4.866 17.4948C4.866 18.3897 5.595 19.1178 6.486 19.1178C7.37898 19.1178 8.10498 18.3828 8.10498 17.4828C8.10498 16.5828 7.37802 15.8628 6.486 15.8628V15.8748ZM1.461 11.0118C0.648 11.0118 0 11.6577 0 12.4707C0 13.2807 0.648 13.9297 1.46 13.9297C2.27 13.9297 2.919 13.2817 2.919 12.4707C2.919 11.6598 2.271 11.0118 1.461 11.0118Z" fill="#00B0B9" data-index="2" style="visibility: visible;"></path>
</g>
</g>
</g>
<defs>
<clipPath id="clip0_76_1059">
<rect width="24" height="24" fill="white" transform="translate(0 0.428711)"></rect>
</clipPath>
</defs>
</svg>