<svg width="112" height="105" viewBox="0 0 112 105" fill="none" xmlns="http://www.w3.org/2000/svg">
<g clip-path="url(#clip0_72_1201)">
<g filter="url(#filter0_di_72_1201)">
<path d="M43.25 82.7498C43.25 86.3198 43.8025 89.8048 44.8225 93.0348C28.5025 87.3823 16.1775 72.3798 14.9025 54.8273C13.6275 36.1698 24.38 18.7448 41.7625 11.4348C46.2675 9.56482 48.5625 10.9248 49.54 11.9023C50.475 12.8373 51.7925 15.0898 49.9225 19.3823C48.01 23.8023 47.075 28.4773 47.075 33.3223C47.1175 41.9923 50.5175 50.0248 56.0425 56.1873C48.265 62.3923 43.25 71.9973 43.25 82.7498Z" fill="#F5F7FA" data-index="0" style="visibility: visible; opacity: 1;"></path>
<path d="M95.1425 77.31C86.7275 88.7425 73.3825 95.4575 59.145 95.4575C58.465 95.4575 57.785 95.415 57.105 95.3725C52.855 95.2025 48.7325 94.395 44.8225 93.035C43.8025 89.805 43.25 86.32 43.25 82.75C43.25 71.9975 48.265 62.3925 56.0425 56.1875C62.29 63.2 71.2575 67.7475 81.16 68.1725C83.8375 68.3 86.515 68.0875 89.15 67.62C93.91 66.77 95.8225 68.555 96.5025 69.7025C97.225 70.85 97.99 73.3575 95.1425 77.31Z" fill="#F5F7FA" data-index="1" style="visibility: visible;"></path>
</g>
</g>
<defs>
<filter id="filter0_di_72_1201" x="-12.9" y="-14.9" width="137.8" height="137.8" filterUnits="userSpaceOnUse" color-interpolation-filters="sRGB">
<feFlood flood-opacity="0" result="BackgroundImageFix"></feFlood>
<feColorMatrix in="SourceAlpha" type="matrix" values="0 0 0 0 0 0 0 0 0 0 0 0 0 0 0 0 0 0 127 0" result="hardAlpha"></feColorMatrix>
<feOffset dy="1"></feOffset>
<feGaussianBlur stdDeviation="8.95"></feGaussianBlur>
<feColorMatrix type="matrix" values="0 0 0 0 0.203922 0 0 0 0 0.32549 0 0 0 0 0.439216 0 0 0 1 0"></feColorMatrix>
<feBlend mode="normal" in2="BackgroundImageFix" result="effect1_dropShadow_72_1201"></feBlend>
<feBlend mode="normal" in="SourceGraphic" in2="effect1_dropShadow_72_1201" result="shape"></feBlend>
<feColorMatrix in="SourceAlpha" type="matrix" values="0 0 0 0 0 0 0 0 0 0 0 0 0 0 0 0 0 0 127 0" result="hardAlpha"></feColorMatrix>
<feOffset dx="10" dy="10"></feOffset>
<feGaussianBlur stdDeviation="5"></feGaussianBlur>
<feComposite in2="hardAlpha" operator="arithmetic" k2="-1" k3="1"></feComposite>
<feColorMatrix type="matrix" values="0 0 0 0 0.647059 0 0 0 0 0.745098 0 0 0 0 0.831373 0 0 0 1 0"></feColorMatrix>
<feBlend mode="normal" in2="shape" result="effect2_innerShadow_72_1201"></feBlend>
</filter>
<clipPath id="clip0_72_1201">
<rect width="112" height="104" fill="white" transform="translate(0 0.5)"></rect>
</clipPath>
</defs>
</svg>